<svg width="327" height="59" xmlns="http://www.w3.org/2000/svg">

 <g>
  <title>background</title>
  <rect fill="none" id="canvas_background" height="402" width="582" y="-1" x="-1"/>
 </g>
 <g>
  <title>Layer 1</title>
  <path id="svg_1" fill="#FFD336" d="m27.5979,5.85411c0.5987,-1.84262 3.2055,-1.84263 3.8042,-0.00001l4.272,13.1479c0.2678,0.8241 1.0357,1.382 1.9021,1.382l13.8246,0c1.9374,0 2.743,2.4792 1.1756,3.618l-11.1843,8.1259c-0.701,0.5093 -0.9943,1.412 -0.7266,2.2361l4.272,13.1479c0.5988,1.8426 -1.5102,3.3749 -3.0776,2.2361l-11.1843,-8.1259c-0.701,-0.5093 -1.6502,-0.5093 -2.3512,0l-11.1843,8.1259c-1.5674,1.1388 -3.6764,-0.3935 -3.0777,-2.2361l4.2721,-13.1479c0.2677,-0.8241 -0.0256,-1.7268 -0.7266,-2.2361l-11.18427,-8.1259c-1.56742,-1.1388 -0.76188,-3.618 1.17557,-3.618l13.8246,0c0.8664,0 1.6343,-0.5579 1.9021,-1.382l4.272,-13.14789z"/>
  <path id="svg_2" fill="#FFD336" d="m94.5979,5.85411c0.5987,-1.84262 3.2055,-1.84263 3.8042,-0.00001l4.2719,13.1479c0.268,0.8241 1.036,1.382 1.902,1.382l13.825,0c1.937,0 2.743,2.4792 1.175,3.618l-11.184,8.1259c-0.701,0.5093 -0.994,1.412 -0.726,2.2361l4.272,13.1479c0.598,1.8426 -1.511,3.3749 -3.078,2.2361l-11.1844,-8.1259c-0.701,-0.5093 -1.6502,-0.5093 -2.3512,0l-11.1843,8.1259c-1.5674,1.1388 -3.6764,-0.3935 -3.0777,-2.2361l4.2721,-13.1479c0.2677,-0.8241 -0.0256,-1.7268 -0.7266,-2.2361l-11.1843,-8.1259c-1.5674,-1.1388 -0.7618,-3.618 1.1756,-3.618l13.8246,0c0.8664,0 1.6343,-0.5579 1.9021,-1.382l4.272,-13.14789z"/>
  <path id="svg_3" fill="#FFD336" d="m161.598,5.85411c0.599,-1.84262 3.205,-1.84263 3.804,-0.00001l4.272,13.1479c0.268,0.8241 1.036,1.382 1.902,1.382l13.825,0c1.937,0 2.743,2.4792 1.175,3.618l-11.184,8.1259c-0.701,0.5093 -0.994,1.412 -0.726,2.2361l4.272,13.1479c0.598,1.8426 -1.511,3.3749 -3.078,2.2361l-11.184,-8.1259c-0.701,-0.5093 -1.651,-0.5093 -2.352,0l-11.184,8.1259c-1.567,1.1388 -3.676,-0.3935 -3.078,-2.2361l4.272,-13.1479c0.268,-0.8241 -0.025,-1.7268 -0.726,-2.2361l-11.184,-8.1259c-1.568,-1.1388 -0.762,-3.618 1.175,-3.618l13.825,0c0.866,0 1.634,-0.5579 1.902,-1.382l4.272,-13.14789z"/>
  <path id="svg_4" fill="#C4C4C4" d="m228.598,5.85411c0.599,-1.84262 3.205,-1.84263 3.804,-0.00001l4.272,13.1479c0.268,0.8241 1.036,1.382 1.902,1.382l13.825,0c1.937,0 2.743,2.4792 1.175,3.618l-11.184,8.1259c-0.701,0.5093 -0.994,1.412 -0.726,2.2361l4.272,13.1479c0.598,1.8426 -1.511,3.3749 -3.078,2.2361l-11.184,-8.1259c-0.701,-0.5093 -1.651,-0.5093 -2.352,0l-11.184,8.1259c-1.567,1.1388 -3.676,-0.3935 -3.078,-2.2361l4.272,-13.1479c0.268,-0.8241 -0.025,-1.7268 -0.726,-2.2361l-11.184,-8.1259c-1.568,-1.1388 -0.762,-3.618 1.175,-3.618l13.825,0c0.866,0 1.634,-0.5579 1.902,-1.382l4.272,-13.14789z"/>
  <path id="svg_5" fill="#C4C4C4" d="m295.598,5.85411c0.599,-1.84262 3.205,-1.84263 3.804,-0.00001l4.272,13.1479c0.268,0.8241 1.036,1.382 1.902,1.382l13.825,0c1.937,0 2.743,2.4792 1.175,3.618l-11.184,8.1259c-0.701,0.5093 -0.994,1.412 -0.726,2.2361l4.272,13.1479c0.598,1.8426 -1.511,3.3749 -3.078,2.2361l-11.184,-8.1259c-0.701,-0.5093 -1.651,-0.5093 -2.352,0l-11.184,8.1259c-1.567,1.1388 -3.676,-0.3935 -3.078,-2.2361l4.272,-13.1479c0.268,-0.8241 -0.025,-1.7268 -0.726,-2.2361l-11.184,-8.1259c-1.568,-1.1388 -0.762,-3.618 1.175,-3.618l13.825,0c0.866,0 1.634,-0.5579 1.902,-1.382l4.272,-13.14789z"/>
  <path id="svg_6" fill="#FFD336" d="m228.598,5.85411c0.599,-1.84262 3.205,-1.84263 3.804,-0.00001l4.272,13.1479c0.268,0.8241 1.036,1.382 1.902,1.382l13.825,0c1.937,0 2.743,2.4792 1.175,3.618l-11.184,8.1259c-0.701,0.5093 -0.994,1.412 -0.726,2.2361l4.272,13.1479c0.598,1.8426 -1.511,3.3749 -3.078,2.2361l-11.184,-8.1259c-0.701,-0.5093 -1.651,-0.5093 -2.352,0l-11.184,8.1259c-1.567,1.1388 -3.676,-0.3935 -3.078,-2.2361l4.272,-13.1479c0.268,-0.8241 -0.025,-1.7268 -0.726,-2.2361l-11.184,-8.1259c-1.568,-1.1388 -0.762,-3.618 1.175,-3.618l13.825,0c0.866,0 1.634,-0.5579 1.902,-1.382l4.272,-13.14789z"/>
  <path id="svg_7" fill="#FFD336" d="m295.598,5.85411c0.599,-1.84262 3.205,-1.84263 3.804,-0.00001l4.272,13.1479c0.268,0.8241 1.036,1.382 1.902,1.382l13.825,0c1.937,0 2.743,2.4792 1.175,3.618l-11.184,8.1259c-0.701,0.5093 -0.994,1.412 -0.726,2.2361l4.272,13.1479c0.598,1.8426 -1.511,3.3749 -3.078,2.2361l-11.184,-8.1259c-0.701,-0.5093 -1.651,-0.5093 -2.352,0l-11.184,8.1259c-1.567,1.1388 -3.676,-0.3935 -3.078,-2.2361l4.272,-13.1479c0.268,-0.8241 -0.025,-1.7268 -0.726,-2.2361l-11.184,-8.1259c-1.568,-1.1388 -0.762,-3.618 1.175,-3.618l13.825,0c0.866,0 1.634,-0.5579 1.902,-1.382l4.272,-13.14789z"/>
 </g>
</svg>